<?xml version="1.0" encoding="UTF-8" standalone="no"?>
<!-- CREATED BY CASTRO -->
<svg width="67.182373mm" height="67.182434mm" viewBox="0 0 67.182373 67.182434" version="1.1" xmlns="http://www.w3.org/2000/svg" xmlns:svg="http://www.w3.org/2000/svg">
    <g transform="translate(-1669.5149,-823.67875)">
        <circle style="fill:#00bba7" cx="1703.1061" cy="857.26996" r="33.591206" />
        <circle style="fill:#ffffff" cx="1703.1061" cy="857.26996" r="29.420668"/>
        <circle style="fill:#00bba7" cx="1703.1061" cy="857.26996" r="25"/>
        <path style="fill:#ffffff" d="m 1700.8989,828.94706 c 1.4714,0 2.9429,0 4.4143,0 0,18.88193 0,37.76386 0,56.64579 -1.4714,0 -2.9429,0 -4.4143,0 0,-18.88193 0,-37.76386 0,-56.64579 z" />
        <path style="fill:#ffffff" d="m 1681.518,838.80333 c 1.0405,-1.04046 2.0809,-2.08092 3.1214,-3.12138 13.3516,13.35154 26.7031,26.70309 40.0547,40.05463 -1.0405,1.04046 -2.0809,2.08092 -3.1214,3.12138 -13.3516,-13.35154 -26.7031,-26.70309 -40.0547,-40.05463 z" />
        <path style="fill:#ffffff" d="m 1724.6941,838.80334 c -1.0405,-1.04046 -2.0809,-2.08093 -3.1214,-3.12139 -13.3516,13.35154 -26.7031,26.70309 -40.0547,40.05463 1.0405,1.04046 2.0809,2.08092 3.1214,3.12138 13.3516,-13.35154 26.7031,-26.70308 40.0547,-40.05462 z" />
        <path style="fill:#ffffff" d="m 1731.4289,855.06281 c 0,1.47143 0,2.94287 0,4.4143 -18.8819,0 -37.7638,0 -56.6457,0 0,-1.47143 0,-2.94287 0,-4.4143 18.8819,0 37.7638,0 56.6457,0 z" />
        <circle style="fill:#00bba7" cx="1703.1061" cy="857.26996" r="4.3430314" />
    </g>
</svg>
